<?xml version="1.0" standalone="no"?><!DOCTYPE svg PUBLIC "-//W3C//DTD SVG 1.1//EN" "http://www.w3.org/Graphics/SVG/1.1/DTD/svg11.dtd"><svg t="1747016791678" class="icon" viewBox="0 0 1024 1024" version="1.1" xmlns="http://www.w3.org/2000/svg" p-id="9230" xmlns:xlink="http://www.w3.org/1999/xlink" width="32" height="32"><path d="M511.340001 570.153543l-31.743975-81.406934-31.743975 81.406934h63.48695z m61.59195 149.85988l-36.96597-89.699928H423.328071l-35.429972 89.699928h-70.551943l132.861893-326.291738h57.188955l136.086891 326.342738h-70.551944z" fill="#D4237A" p-id="9231"></path><path d="M641.333896 720.013423h64.869948V393.721685h-64.869948z" fill="#D4237A" p-id="9232"></path><path d="M631.298904 118.116905a460.792631 460.792631 0 1 0 325.77974 564.316549l-98.915921-26.469979a358.393713 358.393713 0 1 1-253.435797-438.929649l26.519979-98.916921zM844.799734 76.798939V0h51.198959v76.798939h76.798938v51.198959h-76.799938v76.798938H844.799734v-76.798938H767.999795v-51.199959h76.799939z" fill="#D4237A" p-id="9233"></path></svg>