<?xml version="1.0" standalone="no"?><!DOCTYPE svg PUBLIC "-//W3C//DTD SVG 1.1//EN" "http://www.w3.org/Graphics/SVG/1.1/DTD/svg11.dtd"><svg t="1750924944632" class="icon" viewBox="0 0 1024 1024" version="1.1" xmlns="http://www.w3.org/2000/svg" p-id="20293" xmlns:xlink="http://www.w3.org/1999/xlink" width="32" height="32"><path d="M512 512m-512 0a512 512 0 1 0 1024 0 512 512 0 1 0-1024 0Z" fill="#05851e" p-id="20294" data-spm-anchor-id="a313x.search_index.0.i19.219a3a81Wkcifl" class="selected"></path><path d="M810.608 759.952a48 48 0 0 0 13.344-66.56L637.904 414.112a80 80 0 0 0-113.504-20.432l-132.912 96.256-107.312-252.688a48 48 0 1 0-88.352 37.52l115.152 271.168c20.08 47.312 78.928 63.68 120.56 33.536l135.696-98.272 176.816 265.408a48 48 0 0 0 66.56 13.344z" fill="#FFFFFF" p-id="20295"></path><path d="M578.24 695.6a48 48 0 0 0 31.28 60.256l152.544 48.256a80 80 0 0 0 100.416-52.144l48.256-152.544a48 48 0 1 0-91.52-28.96l-43.44 137.28-137.296-43.424a48 48 0 0 0-60.24 31.28z" fill="#FFFFFF" p-id="20296"></path></svg>