<?xml version="1.0" standalone="no"?><!DOCTYPE svg PUBLIC "-//W3C//DTD SVG 1.1//EN" "http://www.w3.org/Graphics/SVG/1.1/DTD/svg11.dtd"><svg t="1750924811863" class="icon" viewBox="0 0 1024 1024" version="1.1" xmlns="http://www.w3.org/2000/svg" p-id="10370" xmlns:xlink="http://www.w3.org/1999/xlink" width="32" height="32"><path d="M85.333333 533.333333h85.333334l42.666666 42.666667 128 21.333333 42.666667 341.333334H85.333333z" fill="#BA7F65" p-id="10371"></path><path d="M682.666667 213.333333m-85.333334 0a85.333333 85.333333 0 1 0 170.666667 0 85.333333 85.333333 0 1 0-170.666667 0Z" fill="#FFB74D" p-id="10372"></path><path d="M936.533333 364.8c-6.4-17.066667-23.466667-25.6-40.533333-21.333333l-125.866667 19.2h-55.466666l-151.466667-61.866667L448 213.333333l-55.466667-106.666666c-6.4-19.2-27.733333-25.6-44.8-19.2l-4.266666 2.133333c-19.2 8.533333-27.733333 29.866667-19.2 46.933333l61.866666 117.333334c2.133333 6.4 4.266667 10.666667 8.533334 14.933333l93.866666 104.533333-98.133333 140.8c-6.4 8.533333-8.533333 17.066667-10.666667 25.6l-23.466666 132.266667-130.133334 117.333333c-14.933333 14.933333-14.933333 38.4 0 53.333334s38.4 14.933333 53.333334 0l132.266666-113.066667 46.933334-89.6 19.2 110.933333-59.733334 138.666667c-8.533333 19.2 0 40.533333 19.2 49.066667h17.066667c14.933333 0 27.733333-8.533333 34.133333-23.466667l66.133334-145.066667c2.133333-8.533333 4.266667-14.933333 2.133333-23.466666v-174.933334l110.933333-125.866666 102.4-10.666667c8.533333 0 14.933333 0 21.333334-2.133333 36.266667-6.4 76.8-17.066667 125.866666-27.733334 17.066667-4.266667 25.6-23.466667 19.2-40.533333z" fill="#FFB74D" p-id="10373"></path><path d="M473.6 725.333333H554.666667v-149.333333h-108.8z" fill="#AB47BC" p-id="10374"></path><path d="M418.133333 473.6l-27.733333 40.533333c-6.4 8.533333-8.533333 17.066667-10.666667 25.6l-23.466666 128 68.266666 34.133334 34.133334-64 96-64-136.533334-100.266667z" fill="#BA68C8" p-id="10375"></path></svg>