<?xml version="1.0" standalone="no"?><!DOCTYPE svg PUBLIC "-//W3C//DTD SVG 1.1//EN" "http://www.w3.org/Graphics/SVG/1.1/DTD/svg11.dtd"><svg t="1750924586160" class="icon" viewBox="0 0 1024 1024" version="1.1" xmlns="http://www.w3.org/2000/svg" p-id="7058" xmlns:xlink="http://www.w3.org/1999/xlink" width="32" height="32"><path d="M512 1024A512 512 0 1 1 512 0a512 512 0 0 1 0 1024z m109.714-496.347v-353.28a36.571 36.571 0 0 0-73.143 0v360.594l-68.608-52.078a36.571 36.571 0 0 0-44.251 58.222l127.05 96.548a37.815 37.815 0 0 0 0.584 0.44l23.552 17.92 22.309-19.75a41.472 41.472 0 0 0 0.292-0.219l109.422-96.621a36.571 36.571 0 0 0-48.42-54.858l-48.787 43.155zM316.197 762.66h561.517a36.571 36.571 0 0 0 0-73.143H369.518L239.982 286.866H94.062a36.571 36.571 0 0 0 0 73.143h92.599l129.536 402.652z" fill="#CF0202" p-id="7059"></path></svg>