<svg t="1750923659385" class="icon" viewBox="0 0 1024 1024" version="1.1" xmlns="http://www.w3.org/2000/svg" p-id="4157" width="32" height="32"><path d="M113.8 427.7c5.5 6.2 13.4 9.8 21.8 10 8.4 0.1 16.4-3.2 22.2-9.2l1.8-1.9 78.2 88.7c10.9 12.3 29.5 13.6 42 3l36.1-30.8 195.8 186.6c-1.1 4.9-1.7 10-1.7 15.2 0 38.5 31.2 69.7 69.7 69.7s69.7-31.2 69.7-69.7c0-1.3 0-2.6-0.1-3.8l303.1-252.4c4.6 25.6 6.9 52 6.9 78.9 0 247.2-200.4 447.7-447.7 447.7S64.1 759.2 64.1 512c0-42.1 5.8-82.8 16.7-121.4l33 37.1z" fill="#EA343C" p-id="4158"></path><path d="M620.1 632.4c-11.4-8.1-25.2-12.8-40.2-12.8-11 0-21.4 2.5-30.7 7.1L337.9 425.5c-11.1-10.6-28.4-11.1-40.1-1.1l-34.2 29.1-80.3-91.1c-5.6-6.2-13.5-9.9-21.9-10.1-8.4-0.2-16.5 3.1-22.3 9.2l-2 2-32.8-36.8C174.7 171.9 330.7 64.3 511.8 64.3c198 0 366.1 128.6 425.1 306.9L620.1 632.4z" fill="#EA343C" p-id="4159"></path><path d="M952.5 433.1l-303 252.4c0.1 1.2 0.1 2.5 0.1 3.8 0 38.5-31.2 69.7-69.7 69.7s-69.7-31.2-69.7-69.7c0-5.2 0.6-10.3 1.7-15.2L316 487.5l-36.1 30.8c-12.5 10.6-31.1 9.3-42-3l-78.2-88.7-1.8 1.9c-5.8 6-13.8 9.3-22.2 9.2-8.4-0.2-16.3-3.8-21.8-10l-33-37.1c6.2-22.1 14-43.4 23.4-64l32.8 36.8 2-2c5.8-6.1 13.9-9.4 22.3-9.2 8.4 0.2 16.3 3.9 21.9 10.1l80.3 91.1 34.2-29.1c11.7-10 29-9.5 40.1 1.1l211.3 201.2c9.3-4.6 19.7-7.1 30.7-7.1 15 0 28.8 4.7 40.2 12.8l316.8-261.2c6.6 20.2 11.9 40.8 15.6 62z" fill="#FFFFFF" p-id="4160"></path></svg>