<?xml version="1.0" encoding="UTF-8" standalone="no"?>
<svg width="256px" height="256px" viewBox="0 0 256 256" version="1.1" xmlns="http://www.w3.org/2000/svg" xmlns:xlink="http://www.w3.org/1999/xlink" preserveAspectRatio="xMidYMid">
    <g>
        <path d="M224.1117,73.5099 C187.2837,52.6229 145.5667,45.8909 114.0577,52.1039 C111.4757,52.6629 109.0417,50.7149 108.4817,48.1329 C107.9227,45.5509 109.8707,43.1179 112.4527,42.5579 C146.3967,35.8149 191.4277,43.0159 231.2957,65.5239 C233.5457,66.8559 234.2957,69.8399 232.9637,72.0909 C231.6317,74.3409 228.6477,75.0909 226.3967,73.7589 C225.6357,73.3049 224.8477,72.8679 224.1117,73.5099" fill="#74C9D7"></path>
        <path d="M190.6837,97.8639 C189.3517,100.1139 186.3677,100.8639 184.1167,99.5319 C155.0167,81.5599 116.6247,75.8399 81.0497,83.2859 C78.4677,83.8449 75.9797,82.0959 75.4207,79.5139 C74.8617,76.9319 76.7097,74.4989 79.2917,73.9389 C118.3997,65.8069 160.1407,72.0399 192.0157,91.7969 C194.2657,93.1289 195.0157,96.1129 193.6837,98.3639 C192.7197,100.0089 190.6837,97.8639 190.6837,97.8639" fill="#74C9D7"></path>
        <path d="M180.2137,119.9999 C178.8817,122.2499 176.8457,122.9999 174.5957,121.6679 C149.8957,106.5189 122.2957,103.1679 88.0317,110.0319 C85.4497,110.5909 83.0167,108.7419 82.4577,106.1599 C81.8987,103.5779 83.7467,101.1449 86.3287,100.5859 C123.6287,93.0959 154.0317,96.9679 181.2777,113.6679 C183.5277,114.9999 184.2777,117.9839 182.9457,120.2339 C181.9817,121.8789 180.2137,119.9999 180.2137,119.9999" fill="#74C9D7"></path>
        <path d="M108.4817,207.8671 C109.0417,205.2851 111.4757,203.3371 114.0577,203.8961 C145.5667,210.1091 187.2837,203.3771 224.1117,182.4901 C224.8477,181.8481 225.6357,182.2851 226.3967,182.7391 C228.6477,184.0711 231.6317,183.3211 232.9637,181.0711 C234.2957,178.8201 233.5457,175.8361 231.2957,174.5041 C191.4277,151.9961 146.3967,144.7951 112.4527,151.5381 C109.8707,152.0981 107.9227,154.5311 108.4817,157.1131 C109.0417,159.6951 111.4757,161.6431 114.0577,161.0841 C114.0577,161.0841 108.4817,207.8671 108.4817,207.8671" fill="#74C9D7"></path>
        <path d="M75.4207,176.4861 C75.9797,173.9041 78.4677,172.0551 81.0497,172.6141 C116.6247,180.0601 155.0167,174.3401 184.1167,156.3681 C186.3677,155.0361 189.3517,155.7861 190.6837,158.0361 C190.6837,158.0361 192.7197,155.8911 193.6837,157.5361 C195.0157,159.7871 194.2657,162.7711 192.0157,164.1031 C160.1407,183.8601 118.3997,190.0931 79.2917,181.9611 C76.7097,181.4011 74.8617,178.9681 75.4207,176.3861 L75.4207,176.4861 Z" fill="#74C9D7"></path>
        <path d="M82.4577,149.8401 C83.0167,147.2581 85.4497,145.4091 88.0317,145.9681 C122.2957,152.8321 149.8957,149.4811 174.5957,134.3321 C176.8457,133.0001 178.8817,133.7501 180.2137,136.0001 C180.2137,136.0001 181.9817,134.1211 182.9457,135.7661 C184.2777,138.0161 183.5277,141.0001 181.2777,142.3321 C154.0317,159.0321 123.6287,162.9041 86.3287,155.4141 C83.7467,154.8551 81.8987,152.4221 82.4577,149.8401" fill="#74C9D7"></path>
        <path d="M127.9997,167.9999 C144.0277,167.9999 156.9997,155.0279 156.9997,138.9999 C156.9997,122.9719 144.0277,109.9999 127.9997,109.9999 C111.9717,109.9999 98.9997,122.9719 98.9997,138.9999 C98.9997,155.0279 111.9717,167.9999 127.9997,167.9999" fill="#74C9D7"></path>
        <path d="M127.9997,149.9999 C134.0747,149.9999 138.9997,145.0749 138.9997,138.9999 C138.9997,132.9249 134.0747,127.9999 127.9997,127.9999 C121.9247,127.9999 116.9997,132.9249 116.9997,138.9999 C116.9997,145.0749 121.9247,149.9999 127.9997,149.9999" fill="#1F1F21"></path>
    </g>
</svg>
